<?xml version="1.0" encoding="UTF-8" standalone="no"?>
<svg xmlns="http://www.w3.org/2000/svg" viewBox="0 0 200 200" width="200" height="200">
  <!-- Circular background -->
  <circle cx="100" cy="100" r="100" fill="white"/>
  
  <!-- Shield shape -->
  <path d="M60,40 L140,40 L140,90 C140,130 100,160 100,160 C100,160 60,130 60,90 Z" 
        fill="#4285C7" />
  
  <!-- White rectangle at top of shield (top section of medical cross) -->
  <rect x="72" y="50" width="56" height="20" fill="white" />
  
  <!-- White horizontal line in middle (middle section of medical cross) -->
  <rect x="72" y="80" width="56" height="10" fill="white" />
  
  <!-- Stethoscope handle/circular part -->
  <path d="M80,110 C80,120 90,130 100,130 C110,130 120,120 120,110" 
        fill="none" stroke="white" stroke-width="8" stroke-linecap="round" />
  
  <!-- Lower part of stethoscope -->
  <path d="M100,140 L100,170 M100,170 C110,170 120,160 120,150 C120,140 110,140 100,140" 
        fill="none" stroke="#CDCDCD" stroke-width="8" stroke-linecap="round" stroke-linejoin="round" />
  
  <!-- Stethoscope chest piece -->
  <circle cx="100" cy="180" r="8" fill="#CDCDCD" />
</svg> 